REM DIRINDEX 1\2,1\3,1\4,1\5
REM DIRNAME folder01,folder02,folder03,folder04,folder05
TITLE ""
FILE "123.mp3" MP3
  TRACK 01 AUDIO
    TITLE "0:"
    INDEX 01 00:00:00
  TRACK 02 AUDIO
    TITLE "2:cjc046_3033"
    INDEX 01 00:00:07
  TRACK 03 AUDIO
    TITLE "0:"
    INDEX 01 00:01:13
  TRACK 04 AUDIO
    TITLE "3:cjc046_3034"
    INDEX 01 00:01:34
  TRACK 05 AUDIO
    TITLE "0:"
    INDEX 01 00:02:26
  TRACK 06 AUDIO
    TITLE "4:cjc046_3035"
    INDEX 01 00:02:40
  TRACK 07 AUDIO
    TITLE "0:"
    INDEX 01 00:03:45
  TRACK 08 AUDIO
    TITLE "2:cjc046_3036"
    INDEX 01 00:04:54
  TRACK 09 AUDIO
    TITLE "0:"
    INDEX 01 00:05:59
  TRACK 10 AUDIO
    TITLE "3:cjc046_3037"
    INDEX 01 00:06:00
  TRACK 11 AUDIO
    TITLE "0:"
    INDEX 01 00:06:69
  TRACK 12 AUDIO
    TITLE "4:cjc046_3038"
    INDEX 01 00:07:13
  TRACK 13 AUDIO
    TITLE "0:"
    INDEX 01 00:08:17
  TRACK 14 AUDIO
    TITLE "2:cjc046_3039"
    INDEX 01 00:09:26
  TRACK 15 AUDIO
    TITLE "0:"
    INDEX 01 00:10:39
  TRACK 16 AUDIO
    TITLE "3:cjc046_3040"
    INDEX 01 00:10:59
  TRACK 17 AUDIO
    TITLE "0:"
    INDEX 01 00:11:64
  TRACK 18 AUDIO
    TITLE "4:cjc046_3041"
    INDEX 01 00:12:09
  TRACK 19 AUDIO
    TITLE "0:"
    INDEX 01 00:13:22
  TRACK 20 AUDIO
    TITLE "2:cjc046_3042"
    INDEX 01 00:14:33
  TRACK 21 AUDIO
    TITLE "0:"
    INDEX 01 00:15:44
  TRACK 22 AUDIO
    TITLE "3:cjc046_3043"
    INDEX 01 00:15:64
  TRACK 23 AUDIO
    TITLE "0:"
    INDEX 01 00:17:29
  TRACK 24 AUDIO
    TITLE "4:cjc046_3044"
    INDEX 01 00:17:43
  TRACK 25 AUDIO
    TITLE "0:"
    INDEX 01 00:18:54
  TRACK 26 AUDIO
    TITLE "2:cjc046_3045"
    INDEX 01 00:19:62
  TRACK 27 AUDIO
    TITLE "0:"
    INDEX 01 00:20:73
  TRACK 28 AUDIO
    TITLE "3:cjc046_3046"
    INDEX 01 00:21:19
  TRACK 29 AUDIO
    TITLE "0:"
    INDEX 01 00:22:23
  TRACK 30 AUDIO
    TITLE "4:cjc046_3047"
    INDEX 01 00:22:44
  TRACK 31 AUDIO
    TITLE "0:"
    INDEX 01 00:23:55
  TRACK 32 AUDIO
    TITLE "2:cjc046_3048"
    INDEX 01 00:24:65
  TRACK 33 AUDIO
    TITLE "0:"
    INDEX 01 00:25:72
  TRACK 34 AUDIO
    TITLE "3:cjc046_3049"
    INDEX 01 00:26:24
  TRACK 35 AUDIO
    TITLE "0:"
    INDEX 01 00:27:55
  TRACK 36 AUDIO
    TITLE "4:cjc046_3050"
    INDEX 01 00:27:57
  TRACK 37 AUDIO
    TITLE "0:"
    INDEX 01 00:28:64
  TRACK 38 AUDIO
    TITLE "2:cjc046_3051"
    INDEX 01 00:30:03
  TRACK 39 AUDIO
    TITLE "0:"
    INDEX 01 00:31:10
  TRACK 40 AUDIO
    TITLE "3:cjc046_3052"
    INDEX 01 00:31:29
  TRACK 41 AUDIO
    TITLE "0:"
    INDEX 01 00:32:29
  TRACK 42 AUDIO
    TITLE "4:cjc046_3053"
    INDEX 01 00:32:48
  TRACK 43 AUDIO
    TITLE "0:"
    INDEX 01 00:33:54
  TRACK 44 AUDIO
    TITLE "2:cjc046_3054"
    INDEX 01 00:34:61
  TRACK 45 AUDIO
    TITLE "0:"
    INDEX 01 00:35:57
  TRACK 46 AUDIO
    TITLE "3:cjc046_3055"
    INDEX 01 00:36:09
  TRACK 47 AUDIO
    TITLE "0:"
    INDEX 01 00:36:72
  TRACK 48 AUDIO
    TITLE "4:cjc046_3056"
    INDEX 01 00:37:07
  TRACK 49 AUDIO
    TITLE "0:"
    INDEX 01 00:38:04
  TRACK 50 AUDIO
    TITLE "2:cjc046_3057"
    INDEX 01 00:39:09
  TRACK 51 AUDIO
    TITLE "0:"
    INDEX 01 00:40:21
  TRACK 52 AUDIO
    TITLE "3:cjc046_3058"
    INDEX 01 00:40:44
  TRACK 53 AUDIO
    TITLE "0:"
    INDEX 01 00:41:71
  TRACK 54 AUDIO
    TITLE "4:cjc046_3059"
    INDEX 01 00:41:73
  TRACK 55 AUDIO
    TITLE "0:"
    INDEX 01 00:43:09
  TRACK 56 AUDIO
    TITLE "2:cjc046_3060"
    INDEX 01 00:44:18
  TRACK 57 AUDIO
    TITLE "0:"
    INDEX 01 00:45:26
  TRACK 58 AUDIO
    TITLE "3:cjc046_3061"
    INDEX 01 00:45:43
  TRACK 59 AUDIO
    TITLE "0:"
    INDEX 01 00:46:54
  TRACK 60 AUDIO
    TITLE "4:cjc046_3062"
    INDEX 01 00:46:60
  TRACK 61 AUDIO
    TITLE "0:"
    INDEX 01 00:47:68
  TRACK 62 AUDIO
    TITLE "2:cjc046_3063"
    INDEX 01 00:49:04
  TRACK 63 AUDIO
    TITLE "0:"
    INDEX 01 00:50:25
  TRACK 64 AUDIO
    TITLE "3:cjc046_3064"
    INDEX 01 00:50:42
  TRACK 65 AUDIO
    TITLE "0:"
    INDEX 01 00:51:62
  TRACK 66 AUDIO
    TITLE "4:cjc046_3065"
    INDEX 01 00:51:71
  TRACK 67 AUDIO
    TITLE "0:"
    INDEX 01 00:53:17
  TRACK 68 AUDIO
    TITLE "2:cjc046_3066"
    INDEX 01 00:54:25
  TRACK 69 AUDIO
    TITLE "0:"
    INDEX 01 00:55:30
  TRACK 70 AUDIO
    TITLE "3:cjc046_3067"
    INDEX 01 00:55:50
  TRACK 71 AUDIO
    TITLE "0:"
    INDEX 01 00:57:33
  TRACK 72 AUDIO
    TITLE "4:cjc046_3068"
    INDEX 01 00:57:41
  TRACK 73 AUDIO
    TITLE "0:"
    INDEX 01 00:58:46
  TRACK 74 AUDIO
    TITLE "2:cjc046_3069"
    INDEX 01 00:59:55
  TRACK 75 AUDIO
    TITLE "0:"
    INDEX 01 01:00:62
  TRACK 76 AUDIO
    TITLE "3:cjc046_3070"
    INDEX 01 01:01:09
  TRACK 77 AUDIO
    TITLE "0:"
    INDEX 01 01:02:32
  TRACK 78 AUDIO
    TITLE "4:cjc046_3071"
    INDEX 01 01:02:44
  TRACK 79 AUDIO
    TITLE "0:"
    INDEX 01 01:03:51
  TRACK 80 AUDIO
    TITLE "2:cjc046_3072"
    INDEX 01 01:04:60
  TRACK 81 AUDIO
    TITLE "0:"
    INDEX 01 01:05:64
  TRACK 82 AUDIO
    TITLE "3:cjc046_3073"
    INDEX 01 01:06:14
  TRACK 83 AUDIO
    TITLE "0:"
    INDEX 01 01:07:63
  TRACK 84 AUDIO
    TITLE "4:cjc046_3074"
    INDEX 01 01:07:64
  TRACK 85 AUDIO
    TITLE "0:"
    INDEX 01 01:08:72
